<svg width="198" height="175" viewBox="0 0 198 175" fill="none" xmlns="http://www.w3.org/2000/svg">
<g clip-path="url(#clip0_1_2)">
<path d="M198 0H0V175H198V0Z" fill="#D90429"/>
<path d="M167.699 125.001C167.592 125.001 167.496 124.963 167.411 124.889C167.336 124.814 167.299 124.718 167.299 124.601V121.161L163.587 114.313C163.576 114.281 163.566 114.254 163.555 114.233C163.544 114.201 163.539 114.169 163.539 114.137C163.539 114.051 163.571 113.977 163.635 113.913C163.71 113.838 163.795 113.801 163.891 113.801H165.891C166.051 113.801 166.174 113.843 166.259 113.929C166.355 114.003 166.414 114.073 166.435 114.137L168.739 118.265L171.043 114.137C171.075 114.073 171.134 114.003 171.219 113.929C171.315 113.843 171.443 113.801 171.603 113.801H173.603C173.699 113.801 173.779 113.838 173.843 113.913C173.907 113.977 173.939 114.051 173.939 114.137C173.939 114.169 173.934 114.201 173.923 114.233C173.923 114.254 173.918 114.281 173.907 114.313L170.179 121.161V124.601C170.179 124.718 170.142 124.814 170.067 124.889C169.992 124.963 169.896 125.001 169.779 125.001H167.699Z" fill="white"/>
<path d="M152.779 125.001C152.662 125.001 152.566 124.963 152.491 124.889C152.416 124.814 152.379 124.718 152.379 124.601V114.201C152.379 114.083 152.416 113.987 152.491 113.913C152.566 113.838 152.662 113.801 152.779 113.801H156.939C157.984 113.801 158.875 113.971 159.611 114.313C160.347 114.643 160.912 115.134 161.307 115.785C161.702 116.425 161.915 117.219 161.947 118.169C161.958 118.638 161.963 119.049 161.963 119.401C161.963 119.753 161.958 120.158 161.947 120.617C161.904 121.609 161.691 122.43 161.307 123.081C160.934 123.731 160.384 124.217 159.659 124.537C158.944 124.846 158.064 125.001 157.019 125.001H152.779ZM155.243 122.697H156.939C157.398 122.697 157.776 122.627 158.075 122.489C158.384 122.339 158.614 122.11 158.763 121.801C158.923 121.491 159.008 121.086 159.019 120.585C159.04 120.275 159.051 119.998 159.051 119.753C159.062 119.507 159.062 119.262 159.051 119.017C159.051 118.771 159.04 118.499 159.019 118.201C158.998 117.475 158.806 116.947 158.443 116.617C158.091 116.275 157.563 116.105 156.859 116.105H155.243V122.697Z" fill="white"/>
<path d="M144.444 125.161C143.463 125.161 142.609 125.001 141.884 124.681C141.159 124.361 140.593 123.881 140.188 123.241C139.783 122.59 139.559 121.779 139.516 120.809C139.505 120.35 139.5 119.891 139.5 119.433C139.5 118.974 139.505 118.51 139.516 118.041C139.559 117.081 139.783 116.275 140.188 115.625C140.604 114.963 141.175 114.467 141.9 114.137C142.625 113.806 143.473 113.641 144.444 113.641C145.404 113.641 146.247 113.806 146.972 114.137C147.708 114.467 148.284 114.963 148.7 115.625C149.116 116.275 149.34 117.081 149.372 118.041C149.393 118.51 149.404 118.974 149.404 119.433C149.404 119.891 149.393 120.35 149.372 120.809C149.329 121.779 149.105 122.59 148.7 123.241C148.295 123.881 147.729 124.361 147.004 124.681C146.279 125.001 145.425 125.161 144.444 125.161ZM144.444 122.857C145.009 122.857 145.468 122.686 145.82 122.345C146.183 122.003 146.375 121.459 146.396 120.713C146.417 120.243 146.428 119.801 146.428 119.385C146.428 118.969 146.417 118.537 146.396 118.089C146.375 117.587 146.279 117.182 146.108 116.873C145.948 116.553 145.724 116.318 145.436 116.169C145.148 116.019 144.817 115.945 144.444 115.945C144.081 115.945 143.756 116.019 143.468 116.169C143.18 116.318 142.951 116.553 142.78 116.873C142.609 117.182 142.513 117.587 142.492 118.089C142.481 118.537 142.476 118.969 142.476 119.385C142.476 119.801 142.481 120.243 142.492 120.713C142.524 121.459 142.716 122.003 143.068 122.345C143.42 122.686 143.879 122.857 144.444 122.857Z" fill="white"/>
<path d="M129.724 125.001C129.607 125.001 129.511 124.963 129.436 124.889C129.362 124.814 129.324 124.718 129.324 124.601V114.201C129.324 114.083 129.362 113.987 129.436 113.913C129.511 113.838 129.607 113.801 129.724 113.801H131.836C131.943 113.801 132.034 113.838 132.108 113.913C132.194 113.987 132.236 114.083 132.236 114.201V122.585H137.068C137.186 122.585 137.282 122.627 137.356 122.713C137.442 122.787 137.484 122.883 137.484 123.001V124.601C137.484 124.718 137.442 124.814 137.356 124.889C137.282 124.963 137.186 125.001 137.068 125.001H129.724Z" fill="white"/>
<path d="M118.388 125.001C118.271 125.001 118.175 124.963 118.1 124.889C118.026 124.814 117.988 124.718 117.988 124.601V114.201C117.988 114.083 118.026 113.987 118.1 113.913C118.175 113.838 118.271 113.801 118.388 113.801H125.86C125.978 113.801 126.074 113.838 126.148 113.913C126.223 113.987 126.26 114.083 126.26 114.201V115.705C126.26 115.822 126.223 115.918 126.148 115.993C126.074 116.067 125.978 116.105 125.86 116.105H120.756V118.265H125.508C125.626 118.265 125.722 118.307 125.796 118.393C125.871 118.467 125.908 118.563 125.908 118.681V120.073C125.908 120.179 125.871 120.275 125.796 120.361C125.722 120.435 125.626 120.473 125.508 120.473H120.756V122.697H125.988C126.106 122.697 126.202 122.734 126.276 122.809C126.351 122.883 126.388 122.979 126.388 123.097V124.601C126.388 124.718 126.351 124.814 126.276 124.889C126.202 124.963 126.106 125.001 125.988 125.001H118.388Z" fill="white"/>
<path d="M104.033 125.001C103.926 125.001 103.83 124.963 103.745 124.889C103.67 124.814 103.633 124.718 103.633 124.601V114.201C103.633 114.083 103.67 113.987 103.745 113.913C103.83 113.838 103.926 113.801 104.033 113.801H105.761C105.931 113.801 106.059 113.849 106.145 113.945C106.241 114.03 106.299 114.099 106.321 114.153L109.137 119.209L111.953 114.153C111.985 114.099 112.038 114.03 112.113 113.945C112.198 113.849 112.331 113.801 112.513 113.801H114.225C114.342 113.801 114.438 113.838 114.513 113.913C114.598 113.987 114.641 114.083 114.641 114.201V124.601C114.641 124.718 114.598 124.814 114.513 124.889C114.438 124.963 114.342 125.001 114.225 125.001H112.321C112.203 125.001 112.102 124.963 112.017 124.889C111.942 124.814 111.905 124.718 111.905 124.601V118.601L110.097 121.945C110.054 122.041 109.99 122.126 109.905 122.201C109.819 122.275 109.702 122.313 109.553 122.313H108.721C108.571 122.313 108.454 122.275 108.369 122.201C108.283 122.126 108.214 122.041 108.161 121.945L106.353 118.601V124.601C106.353 124.718 106.315 124.814 106.241 124.889C106.166 124.963 106.07 125.001 105.953 125.001H104.033Z" fill="white"/>
<path d="M91.148 125.001C91.0307 125.001 90.9347 124.963 90.86 124.889C90.7853 124.814 90.748 124.718 90.748 124.601V116.313H87.9C87.7827 116.313 87.6867 116.275 87.612 116.201C87.5373 116.115 87.5 116.019 87.5 115.913V114.201C87.5 114.083 87.5373 113.987 87.612 113.913C87.6867 113.838 87.7827 113.801 87.9 113.801H96.508C96.6253 113.801 96.7213 113.838 96.796 113.913C96.8707 113.987 96.908 114.083 96.908 114.201V115.913C96.908 116.019 96.8707 116.115 96.796 116.201C96.7213 116.275 96.6253 116.313 96.508 116.313H93.66V124.601C93.66 124.718 93.6227 124.814 93.548 124.889C93.4733 124.963 93.3773 125.001 93.26 125.001H91.148Z" fill="white"/>
<path d="M77.3453 125.001C77.228 125.001 77.132 124.963 77.0573 124.889C76.9826 124.814 76.9453 124.718 76.9453 124.601V114.201C76.9453 114.083 76.9826 113.987 77.0573 113.913C77.132 113.838 77.228 113.801 77.3453 113.801H84.8173C84.9346 113.801 85.0306 113.838 85.1053 113.913C85.18 113.987 85.2173 114.083 85.2173 114.201V115.705C85.2173 115.822 85.18 115.918 85.1053 115.993C85.0306 116.067 84.9346 116.105 84.8173 116.105H79.7133V118.265H84.4653C84.5826 118.265 84.6786 118.307 84.7533 118.393C84.828 118.467 84.8653 118.563 84.8653 118.681V120.073C84.8653 120.179 84.828 120.275 84.7533 120.361C84.6786 120.435 84.5826 120.473 84.4653 120.473H79.7133V122.697H84.9453C85.0626 122.697 85.1586 122.734 85.2333 122.809C85.308 122.883 85.3453 122.979 85.3453 123.097V124.601C85.3453 124.718 85.308 124.814 85.2333 124.889C85.1586 124.963 85.0626 125.001 84.9453 125.001H77.3453Z" fill="white"/>
<path d="M65.6305 125.001C65.5131 125.001 65.4171 124.963 65.3425 124.889C65.2678 124.814 65.2305 124.718 65.2305 124.601V114.201C65.2305 114.083 65.2678 113.987 65.3425 113.913C65.4171 113.838 65.5131 113.801 65.6305 113.801H67.6465C67.7638 113.801 67.8598 113.838 67.9345 113.913C68.0091 113.987 68.0465 114.083 68.0465 114.201V117.753L71.0065 114.105C71.0491 114.041 71.1185 113.977 71.2145 113.913C71.3211 113.838 71.4598 113.801 71.6305 113.801H73.9345C74.0305 113.801 74.1105 113.838 74.1745 113.913C74.2385 113.977 74.2705 114.051 74.2705 114.137C74.2705 114.211 74.2491 114.275 74.2065 114.329L70.3825 119.161L74.5105 124.473C74.5531 124.515 74.5745 124.579 74.5745 124.665C74.5745 124.75 74.5371 124.83 74.4625 124.905C74.3985 124.969 74.3238 125.001 74.2385 125.001H71.8545C71.6625 125.001 71.5131 124.958 71.4065 124.873C71.3105 124.787 71.2465 124.723 71.2145 124.681L68.0465 120.729V124.601C68.0465 124.718 68.0091 124.814 67.9345 124.889C67.8598 124.963 67.7638 125.001 67.6465 125.001H65.6305Z" fill="white"/>
<path d="M53.4469 125.001C53.3295 125.001 53.2335 124.963 53.1589 124.889C53.0842 124.814 53.0469 124.718 53.0469 124.601V114.201C53.0469 114.083 53.0842 113.987 53.1589 113.913C53.2335 113.838 53.3295 113.801 53.4469 113.801H57.7989C59.1749 113.801 60.2575 114.121 61.0469 114.761C61.8469 115.39 62.2469 116.286 62.2469 117.449C62.2469 118.206 62.0602 118.846 61.6869 119.369C61.3242 119.891 60.8442 120.286 60.2469 120.553L62.4549 124.489C62.4869 124.553 62.5029 124.611 62.5029 124.665C62.5029 124.75 62.4655 124.83 62.3909 124.905C62.3269 124.969 62.2469 125.001 62.1509 125.001H60.0389C59.8362 125.001 59.6869 124.953 59.5909 124.857C59.4949 124.75 59.4255 124.654 59.3829 124.569L57.5589 121.049H55.9109V124.601C55.9109 124.718 55.8735 124.814 55.7989 124.889C55.7242 124.963 55.6282 125.001 55.5109 125.001H53.4469ZM55.9109 118.793H57.7669C58.2682 118.793 58.6415 118.67 58.8869 118.425C59.1429 118.179 59.2709 117.843 59.2709 117.417C59.2709 117.001 59.1482 116.665 58.9029 116.409C58.6682 116.153 58.2895 116.025 57.7669 116.025H55.9109V118.793Z" fill="white"/>
<path d="M39.836 125.001C39.7507 125.001 39.6707 124.969 39.596 124.905C39.532 124.83 39.5 124.75 39.5 124.665C39.5 124.611 39.5053 124.563 39.516 124.521L43.276 114.249C43.308 114.131 43.372 114.03 43.468 113.945C43.5747 113.849 43.7187 113.801 43.9 113.801H46.268C46.4493 113.801 46.588 113.849 46.684 113.945C46.7907 114.03 46.86 114.131 46.892 114.249L50.636 124.521C50.6573 124.563 50.668 124.611 50.668 124.665C50.668 124.75 50.6307 124.83 50.556 124.905C50.492 124.969 50.412 125.001 50.316 125.001H48.348C48.188 125.001 48.0653 124.963 47.98 124.889C47.9053 124.803 47.8573 124.729 47.836 124.665L47.212 123.033H42.94L42.332 124.665C42.3107 124.729 42.2627 124.803 42.188 124.889C42.1133 124.963 41.9853 125.001 41.804 125.001H39.836ZM43.596 120.729H46.572L45.068 116.505L43.596 120.729Z" fill="white"/>
<path d="M26.5211 125.001C26.4144 125.001 26.3184 124.963 26.2331 124.889C26.1584 124.814 26.1211 124.718 26.1211 124.601V114.201C26.1211 114.083 26.1584 113.987 26.2331 113.913C26.3184 113.838 26.4144 113.801 26.5211 113.801H28.2491C28.4198 113.801 28.5478 113.849 28.6331 113.945C28.7291 114.03 28.7878 114.099 28.8091 114.153L31.6251 119.209L34.4411 114.153C34.4731 114.099 34.5264 114.03 34.6011 113.945C34.6864 113.849 34.8198 113.801 35.0011 113.801H36.7131C36.8304 113.801 36.9264 113.838 37.0011 113.913C37.0864 113.987 37.1291 114.083 37.1291 114.201V124.601C37.1291 124.718 37.0864 124.814 37.0011 124.889C36.9264 124.963 36.8304 125.001 36.7131 125.001H34.8091C34.6918 125.001 34.5904 124.963 34.5051 124.889C34.4304 124.814 34.3931 124.718 34.3931 124.601V118.601L32.5851 121.945C32.5424 122.041 32.4784 122.126 32.3931 122.201C32.3078 122.275 32.1904 122.313 32.0411 122.313H31.2091C31.0598 122.313 30.9424 122.275 30.8571 122.201C30.7718 122.126 30.7024 122.041 30.6491 121.945L28.8411 118.601V124.601C28.8411 124.718 28.8038 124.814 28.7291 124.889C28.6544 124.963 28.5584 125.001 28.4411 125.001H26.5211Z" fill="white"/>
<path d="M131.255 148.193C130.579 148.193 130.039 147.989 129.635 147.581C129.235 147.173 129.035 146.637 129.035 145.973V145.493H130.655V145.973C130.655 146.153 130.707 146.299 130.811 146.411C130.915 146.519 131.063 146.573 131.255 146.573C131.447 146.573 131.595 146.519 131.699 146.411C131.803 146.299 131.855 146.153 131.855 145.973V145.049C131.855 144.945 131.851 144.863 131.843 144.803C131.835 144.743 131.813 144.695 131.777 144.659C131.745 144.623 131.687 144.591 131.603 144.563C131.523 144.531 131.407 144.493 131.255 144.449C130.699 144.281 130.269 144.139 129.965 144.023C129.661 143.903 129.443 143.775 129.311 143.639C129.179 143.503 129.099 143.327 129.071 143.111C129.047 142.891 129.035 142.597 129.035 142.229V141.029C129.035 140.361 129.235 139.825 129.635 139.421C130.039 139.013 130.579 138.809 131.255 138.809C131.935 138.809 132.475 139.013 132.875 139.421C133.275 139.825 133.475 140.361 133.475 141.029V141.509H131.855V141.029C131.855 140.849 131.803 140.705 131.699 140.597C131.595 140.485 131.447 140.429 131.255 140.429C131.063 140.429 130.915 140.485 130.811 140.597C130.707 140.705 130.655 140.849 130.655 141.029V142.229C130.655 142.333 130.659 142.415 130.667 142.475C130.675 142.535 130.695 142.583 130.727 142.619C130.763 142.655 130.823 142.689 130.907 142.721C130.991 142.749 131.107 142.785 131.255 142.829C131.811 142.997 132.241 143.141 132.545 143.261C132.849 143.377 133.067 143.503 133.199 143.639C133.331 143.775 133.409 143.953 133.433 144.173C133.461 144.389 133.475 144.681 133.475 145.049V145.973C133.475 146.637 133.275 147.173 132.875 147.581C132.475 147.989 131.935 148.193 131.255 148.193Z" fill="white"/>
<path d="M124.668 148V140.62H123.348V139H127.608V140.62H126.288V148H124.668Z" fill="white"/>
<path d="M117.316 148V139H118.516L120.568 144.832L120.136 144.844V139H121.636V148H120.436L118.384 142.168L118.816 142.156V148H117.316Z" fill="white"/>
<path d="M115.193 139V140.62H113.093V142.42H114.869V144.04H113.093V146.38H115.193V148H111.473V139H115.193Z" fill="white"/>
<path d="M102.809 148V139H104.249L106.097 145.972H105.713L107.561 139H109.001V148H107.501V143.428L107.693 143.464L106.421 148H105.389L104.117 143.464L104.309 143.428V148H102.809Z" fill="white"/>
<path d="M100.397 139V145.972C100.397 146.636 100.197 147.172 99.797 147.58C99.397 147.988 98.857 148.192 98.177 148.192C97.501 148.192 96.961 147.988 96.557 147.58C96.157 147.172 95.957 146.636 95.957 145.972V139H97.577V145.972C97.577 146.152 97.629 146.298 97.733 146.41C97.837 146.518 97.985 146.572 98.177 146.572C98.369 146.572 98.517 146.518 98.621 146.41C98.725 146.298 98.777 146.152 98.777 145.972V139H100.397Z" fill="white"/>
<path d="M89.25 148V139H91.47C92.15 139 92.69 139.204 93.09 139.612C93.49 140.016 93.69 140.552 93.69 141.22V142.66C93.69 143.084 93.606 143.458 93.438 143.782C93.27 144.106 93.03 144.368 92.718 144.568L92.598 144.04C92.946 144.164 93.214 144.348 93.402 144.592C93.594 144.836 93.69 145.132 93.69 145.48V148H92.07V145.48C92.07 145.3 92.018 145.156 91.914 145.048C91.81 144.936 91.662 144.88 91.47 144.88H90.87V148H89.25ZM90.87 143.26H91.47C91.662 143.26 91.81 143.206 91.914 143.098C92.018 142.986 92.07 142.84 92.07 142.66V141.22C92.07 141.04 92.018 140.896 91.914 140.788C91.81 140.676 91.662 140.62 91.47 140.62H90.87V143.26Z" fill="white"/>
<path d="M84.5934 148V140.62H83.2734V139H87.5334V140.62H86.2134V148H84.5934Z" fill="white"/>
<path d="M79.6653 148.193C78.9893 148.193 78.4493 147.989 78.0453 147.581C77.6453 147.173 77.4453 146.637 77.4453 145.973V145.493H79.0653V145.973C79.0653 146.153 79.1173 146.299 79.2213 146.411C79.3253 146.519 79.4733 146.573 79.6653 146.573C79.8573 146.573 80.0053 146.519 80.1093 146.411C80.2133 146.299 80.2653 146.153 80.2653 145.973V145.049C80.2653 144.945 80.2613 144.863 80.2533 144.803C80.2453 144.743 80.2233 144.695 80.1873 144.659C80.1553 144.623 80.0973 144.591 80.0133 144.563C79.9333 144.531 79.8173 144.493 79.6653 144.449C79.1093 144.281 78.6793 144.139 78.3753 144.023C78.0713 143.903 77.8533 143.775 77.7213 143.639C77.5893 143.503 77.5093 143.327 77.4813 143.111C77.4573 142.891 77.4453 142.597 77.4453 142.229V141.029C77.4453 140.361 77.6453 139.825 78.0453 139.421C78.4493 139.013 78.9893 138.809 79.6653 138.809C80.3453 138.809 80.8853 139.013 81.2853 139.421C81.6853 139.825 81.8853 140.361 81.8853 141.029V141.509H80.2653V141.029C80.2653 140.849 80.2133 140.705 80.1093 140.597C80.0053 140.485 79.8573 140.429 79.6653 140.429C79.4733 140.429 79.3253 140.485 79.2213 140.597C79.1173 140.705 79.0653 140.849 79.0653 141.029V142.229C79.0653 142.333 79.0693 142.415 79.0773 142.475C79.0853 142.535 79.1053 142.583 79.1373 142.619C79.1733 142.655 79.2333 142.689 79.3173 142.721C79.4013 142.749 79.5173 142.785 79.6653 142.829C80.2213 142.997 80.6513 143.141 80.9553 143.261C81.2593 143.377 81.4773 143.503 81.6093 143.639C81.7413 143.775 81.8193 143.953 81.8433 144.173C81.8713 144.389 81.8853 144.681 81.8853 145.049V145.973C81.8853 146.637 81.6853 147.173 81.2853 147.581C80.8853 147.989 80.3453 148.193 79.6653 148.193Z" fill="white"/>
<path d="M70.9414 148V139H72.1414L74.1934 144.832L73.7614 144.844V139H75.2614V148H74.0614L72.0094 142.168L72.4414 142.156V148H70.9414Z" fill="white"/>
<path d="M68.4677 148H66.8477V139H68.4677V148Z" fill="white"/>
<path d="M99.5 92C113.031 92 124 81.031 124 67.5C124 53.969 113.031 43 99.5 43C85.969 43 75 53.969 75 67.5C75 81.031 85.969 92 99.5 92Z" stroke="white" stroke-width="4"/>
<path d="M99.5 82C107.508 82 114 75.5081 114 67.5C114 59.4919 107.508 53 99.5 53C91.4919 53 85 59.4919 85 67.5C85 75.5081 91.4919 82 99.5 82Z" stroke="white" stroke-width="4"/>
<path d="M123 96C124.105 96 125 95.1046 125 94C125 92.8954 124.105 92 123 92C121.895 92 121 92.8954 121 94C121 95.1046 121.895 96 123 96Z" fill="white"/>
<path d="M76 96C77.1046 96 78 95.1046 78 94C78 92.8954 77.1046 92 76 92C74.8954 92 74 92.8954 74 94C74 95.1046 74.8954 96 76 96Z" fill="white"/>
<path d="M76 43C77.1046 43 78 42.1046 78 41C78 39.8954 77.1046 39 76 39C74.8954 39 74 39.8954 74 41C74 42.1046 74.8954 43 76 43Z" fill="white"/>
<path d="M123 43C124.105 43 125 42.1046 125 41C125 39.8954 124.105 39 123 39C121.895 39 121 39.8954 121 41C121 42.1046 121.895 43 123 43Z" fill="white"/>
<path d="M99.5 70C100.881 70 102 68.8807 102 67.5C102 66.1193 100.881 65 99.5 65C98.1193 65 97 66.1193 97 67.5C97 68.8807 98.1193 70 99.5 70Z" fill="white"/>
<path d="M132.545 31H67.4546C66.6512 31 66 31.6512 66 32.4545C66 33.2579 66.6512 33.9091 67.4546 33.9091H132.545C133.349 33.9091 134 33.2579 134 32.4545C134 31.6512 133.349 31 132.545 31Z" fill="white"/>
<path d="M134 53V33C134 31.8954 133.105 31 132 31C130.895 31 130 31.8954 130 33V53C130 54.1046 130.895 55 132 55C133.105 55 134 54.1046 134 53Z" fill="white"/>
<path d="M70 53V33C70 31.8954 69.1046 31 68 31C66.8954 31 66 31.8954 66 33V53C66 54.1046 66.8954 55 68 55C69.1046 55 70 54.1046 70 53Z" fill="white"/>
<path d="M132.606 102H67.3939C66.6241 102 66 101.376 66 100.606C66 99.8362 66.6241 99.2121 67.3939 99.2121H132.606C133.376 99.2121 134 99.8362 134 100.606C134 101.376 133.376 102 132.606 102Z" fill="white"/>
<path d="M134 81V100C134 101.105 133.105 102 132 102C130.895 102 130 101.105 130 100V81C130 79.8954 130.895 79 132 79C133.105 79 134 79.8954 134 81Z" fill="white"/>
<path d="M70 81V100C70 101.105 69.1046 102 68 102C66.8954 102 66 101.105 66 100V81C66 79.8954 66.8954 79 68 79C69.1046 79 70 79.8954 70 81Z" fill="white"/>
<path d="M134 62V73C134 74.1046 133.105 75 132 75C130.895 75 130 74.1046 130 73V62C130 60.8954 130.895 60 132 60C133.105 60 134 60.8954 134 62Z" fill="white"/>
<path d="M150 62V73C150 74.1046 149.105 75 148 75C146.895 75 146 74.1046 146 73V62C146 60.8954 146.895 60 148 60C149.105 60 150 60.8954 150 62Z" fill="white"/>
<path d="M142 57V78C142 79.1046 141.105 80 140 80C138.895 80 138 79.1046 138 78V57C138 55.8954 138.895 55 140 55C141.105 55 142 55.8954 142 57Z" fill="white"/>
<path d="M159 51V83C159 84.1046 158.105 85 157 85C155.895 85 155 84.1046 155 83V51C155 49.8954 155.895 49 157 49C158.105 49 159 49.8954 159 51Z" fill="white"/>
<path d="M167 60V75C167 76.1046 166.105 77 165 77C163.895 77 163 76.1046 163 75V60C163 58.8954 163.895 58 165 58C166.105 58 167 58.8954 167 60Z" fill="white"/>
<path d="M66 73V62C66 60.8954 66.8954 60 68 60C69.1046 60 70 60.8954 70 62V73C70 74.1046 69.1046 75 68 75C66.8954 75 66 74.1046 66 73Z" fill="white"/>
<path d="M50 73V62C50 60.8954 50.8954 60 52 60C53.1046 60 54 60.8954 54 62V73C54 74.1046 53.1046 75 52 75C50.8954 75 50 74.1046 50 73Z" fill="white"/>
<path d="M58 78V57C58 55.8954 58.8954 55 60 55C61.1046 55 62 55.8954 62 57V78C62 79.1046 61.1046 80 60 80C58.8954 80 58 79.1046 58 78Z" fill="white"/>
<path d="M41 84V52C41 50.8954 41.8954 50 43 50C44.1046 50 45 50.8954 45 52V84C45 85.1046 44.1046 86 43 86C41.8954 86 41 85.1046 41 84Z" fill="white"/>
<path d="M33 75V60C33 58.8954 33.8954 58 35 58C36.1046 58 37 58.8954 37 60V75C37 76.1046 36.1046 77 35 77C33.8954 77 33 76.1046 33 75Z" fill="white"/>
<path d="M133 133H67C66.4477 133 66 133.448 66 134C66 134.552 66.4477 135 67 135H133C133.552 135 134 134.552 134 134C134 133.448 133.552 133 133 133Z" fill="white"/>
</g>
<defs>
<clipPath id="clip0_1_2">
<rect width="198" height="175" fill="white"/>
</clipPath>
</defs>
</svg>
